<svg xmlns="http://www.w3.org/2000/svg" version="1.1" xmlns:xlink="http://www.w3.org/1999/xlink" xmlns:svgjs="http://svgjs.dev/svgjs" width="1000" height="1000" viewBox="0 0 1000 1000"><rect width="1000" height="1000" fill="#000000"></rect><g transform="matrix(0.7,0,0,0.7,149.57575757575756,282.1265587044535)"><svg viewBox="0 0 396 247" data-background-color="#ffffff" preserveAspectRatio="xMidYMid meet" height="623" width="1000" xmlns="http://www.w3.org/2000/svg" xmlns:xlink="http://www.w3.org/1999/xlink"><g id="tight-bounds" transform="matrix(1,0,0,1,0.2400000000000091,-0.09999999999999432)"><svg viewBox="0 0 395.52 247.2" height="247.2" width="395.52"><g><svg></svg></g><g><svg viewBox="0 0 395.52 247.2" height="247.2" width="395.52"><g transform="matrix(1,0,0,1,75.54432,98.43505986339895)"><svg viewBox="0 0 244.43135999999998 50.32988027320209" height="50.32988027320209" width="244.43135999999998"><g><svg viewBox="0 0 244.43135999999998 50.32988027320209" height="50.32988027320209" width="244.43135999999998"><g><svg viewBox="0 0 244.43135999999998 50.32988027320209" height="50.32988027320209" width="244.43135999999998"><g><svg viewBox="0 0 244.43135999999998 50.32988027320209" height="50.32988027320209" width="244.43135999999998"><g><svg viewBox="0 0 244.43135999999998 50.32988027320209" height="50.32988027320209" width="244.43135999999998"><g><svg viewBox="0 0 244.43135999999998 50.32988027320209" height="50.32988027320209" width="244.43135999999998"><g transform="matrix(1,0,0,1,0,0)"><svg width="244.43135999999998" viewBox="2.5 -41.04999923706055 248.8800048828125 51.25" height="50.32988027320209" data-palette-color="#000000"><path d="M20.75-27.85Q24.35-27.85 27.38-26.13 30.4-24.4 32.18-21.18 33.95-17.95 33.95-13.7L33.95-13.7Q33.95-9.45 32.18-6.2 30.4-2.95 27.38-1.23 24.35 0.5 20.75 0.5L20.75 0.5Q15.7 0.5 13.25-2.25L13.25-2.25 13.25 0 2.5 0 2.5-37.1 13.8-37.1 13.8-25.5Q16.2-27.85 20.75-27.85L20.75-27.85ZM18.05-8.3Q20-8.3 21.25-9.73 22.5-11.15 22.5-13.7L22.5-13.7Q22.5-16.25 21.25-17.65 20-19.05 18.05-19.05L18.05-19.05Q16.1-19.05 14.85-17.65 13.6-16.25 13.6-13.7L13.6-13.7Q13.6-11.15 14.85-9.73 16.1-8.3 18.05-8.3L18.05-8.3ZM56.5-27.35L67.2-27.35 55.95 0.55Q53.8 5.9 50.6 8.05 47.4 10.2 42.75 10.2L42.75 10.2Q40.45 10.2 38.12 9.53 35.8 8.85 34.45 7.75L34.45 7.75 38.2 0Q39.05 0.65 40.12 1.05 41.2 1.45 42.2 1.45L42.2 1.45Q44.05 1.45 45 0.35L45 0.35 33.5-27.35 45.1-27.35 50.75-12.7 56.5-27.35ZM87.15-8.8L89.85-0.95Q87.3 0.5 82.9 0.5L82.9 0.5Q77.15 0.5 74.05-2.27 70.95-5.05 70.95-10.6L70.95-10.6 70.95-17.6 67.2-17.6 67.2-25.85 70.95-25.85 70.95-33.5 82.25-33.5 82.25-25.85 87.85-25.85 87.85-17.6 82.25-17.6 82.25-10.7Q82.25-9.45 82.9-8.75 83.55-8.05 84.6-8.05L84.6-8.05Q86.05-8.05 87.15-8.8L87.15-8.8ZM121.04-13.7Q121.04-13.45 120.89-11.05L120.89-11.05 101.89-11.05Q102.49-9.5 103.89-8.68 105.29-7.85 107.39-7.85L107.39-7.85Q109.19-7.85 110.42-8.3 111.64-8.75 113.09-9.85L113.09-9.85 118.99-3.9Q114.99 0.5 107.04 0.5L107.04 0.5Q102.09 0.5 98.34-1.33 94.59-3.15 92.54-6.4 90.49-9.65 90.49-13.7L90.49-13.7Q90.49-17.8 92.52-21.03 94.54-24.25 98.07-26.05 101.59-27.85 105.99-27.85L105.99-27.85Q110.14-27.85 113.57-26.2 116.99-24.55 119.02-21.35 121.04-18.15 121.04-13.7L121.04-13.7ZM106.09-20.15Q104.34-20.15 103.19-19.2 102.04-18.25 101.69-16.5L101.69-16.5 110.49-16.5Q110.14-18.2 108.99-19.18 107.84-20.15 106.09-20.15L106.09-20.15ZM139.29 0.5Q134.64 0.5 130.97-1.3 127.29-3.1 125.22-6.35 123.14-9.6 123.14-13.7L123.14-13.7Q123.14-17.8 125.22-21.03 127.29-24.25 130.97-26.05 134.64-27.85 139.29-27.85L139.29-27.85Q144.29-27.85 147.84-25.7 151.39-23.55 152.74-19.75L152.74-19.75 143.99-15.45Q142.39-19.05 139.24-19.05L139.24-19.05Q137.24-19.05 135.91-17.65 134.59-16.25 134.59-13.7L134.59-13.7Q134.59-11.1 135.91-9.7 137.24-8.3 139.24-8.3L139.24-8.3Q142.39-8.3 143.99-11.9L143.99-11.9 152.74-7.6Q151.39-3.8 147.84-1.65 144.29 0.5 139.29 0.5L139.29 0.5ZM155.34 0L155.34-27.35 166.64-27.35 166.64 0 155.34 0ZM160.99-29.55Q157.94-29.55 156.06-31.18 154.19-32.8 154.19-35.3L154.19-35.3Q154.19-37.8 156.06-39.43 157.94-41.05 160.99-41.05L160.99-41.05Q164.09-41.05 165.94-39.5 167.79-37.95 167.79-35.5L167.79-35.5Q167.79-32.9 165.94-31.23 164.09-29.55 160.99-29.55L160.99-29.55ZM189.09-8.8L191.79-0.95Q189.24 0.5 184.84 0.5L184.84 0.5Q179.09 0.5 175.99-2.27 172.89-5.05 172.89-10.6L172.89-10.6 172.89-17.6 169.14-17.6 169.14-25.85 172.89-25.85 172.89-33.5 184.19-33.5 184.19-25.85 189.79-25.85 189.79-17.6 184.19-17.6 184.19-10.7Q184.19-9.45 184.84-8.75 185.49-8.05 186.54-8.05L186.54-8.05Q187.99-8.05 189.09-8.8L189.09-8.8ZM222.98-13.7Q222.98-13.45 222.83-11.05L222.83-11.05 203.83-11.05Q204.43-9.5 205.83-8.68 207.23-7.85 209.33-7.85L209.33-7.85Q211.13-7.85 212.36-8.3 213.58-8.75 215.03-9.85L215.03-9.85 220.93-3.9Q216.93 0.5 208.98 0.5L208.98 0.5Q204.03 0.5 200.28-1.33 196.53-3.15 194.48-6.4 192.43-9.65 192.43-13.7L192.43-13.7Q192.43-17.8 194.46-21.03 196.48-24.25 200.01-26.05 203.53-27.85 207.93-27.85L207.93-27.85Q212.08-27.85 215.51-26.2 218.93-24.55 220.96-21.35 222.98-18.15 222.98-13.7L222.98-13.7ZM208.03-20.15Q206.28-20.15 205.13-19.2 203.98-18.25 203.63-16.5L203.63-16.5 212.43-16.5Q212.08-18.2 210.93-19.18 209.78-20.15 208.03-20.15L208.03-20.15ZM237.23 0.5Q233.73 0.5 230.33-0.25 226.93-1 224.83-2.2L224.83-2.2 227.93-9.65Q229.83-8.5 232.43-7.85 235.03-7.2 237.48-7.2L237.48-7.2Q239.43-7.2 240.21-7.53 240.98-7.85 240.98-8.5L240.98-8.5Q240.98-9.15 240.01-9.4 239.03-9.65 236.83-9.9L236.83-9.9Q233.48-10.3 231.13-10.93 228.78-11.55 227.01-13.35 225.23-15.15 225.23-18.5L225.23-18.5Q225.23-21.15 226.83-23.25 228.43-25.35 231.61-26.6 234.78-27.85 239.23-27.85L239.23-27.85Q242.33-27.85 245.31-27.28 248.28-26.7 250.38-25.6L250.38-25.6 247.28-18.15Q243.68-20.15 239.38-20.15L239.38-20.15Q235.68-20.15 235.68-18.85L235.68-18.85Q235.68-18.2 236.68-17.93 237.68-17.65 239.83-17.4L239.83-17.4Q243.18-17 245.51-16.35 247.83-15.7 249.61-13.9 251.38-12.1 251.38-8.75L251.38-8.75Q251.38-6.2 249.78-4.1 248.18-2 244.98-0.75 241.78 0.5 237.23 0.5L237.23 0.5Z" opacity="1" transform="matrix(1,0,0,1,0,0)" fill="#ffffff" class="undefined-text-0" data-fill-palette-color="primary" id="text-0"></path></svg></g></svg></g></svg></g></svg></g></svg></g></svg></g></svg></g><path d="M204.103 92.435L204.103 31.968 387.366 31.968 387.366 215.232 204.103 215.232 204.103 154.765 208.642 154.765 208.642 210.693 382.827 210.693 382.827 36.507 208.642 36.507 208.642 92.435Z" fill="#ffffff" stroke="transparent" data-fill-palette-color="primary"></path></svg></g><defs></defs></svg><rect width="395.52" height="247.2" fill="none" stroke="none" visibility="hidden"></rect></g></svg></g></svg>